# xmcd CD database file
#
# Track frame offsets:
#	182
#	34890
#	69722
#	98082
#	116095
#	141105
#	196490
#	243947
#	270137
#
# Disc length: 3885 seconds
#
# Revision: 0
# Processed by: cddbd v1.5.2PL0 Copyright (c) Steve Scherf et al.
# Submitted via: CDex 1.70beta2
#
DISCID=7b0f2b09
DTITLE=Jazz Time Big Band - Mauresaca
DYEAR=2005
DGENRE=Jazz
TTITLE0=Freedom Jazz Dance
TTITLE1=Réincarnation Of A Love Bird
TTITLE2=Off Minor
TTITLE3=No Tonic Press
TTITLE4=Prospectus
TTITLE5=Mauresaca
TTITLE6=Gaudi
TTITLE7=E.S.P.
TTITLE8=Boogie Stop Shuffle
EXTD=YEAR: 2005
EXTT0=
EXTT1=
EXTT2=
EXTT3=
EXTT4=
EXTT5=
EXTT6=
EXTT7=
EXTT8=
PLAYORDER=
